<svg xmlns="http://www.w3.org/2000/svg" xmlns:xlink="http://www.w3.org/1999/xlink" width="500" zoomAndPan="magnify" viewBox="0 0 375 374.999991" height="500" preserveAspectRatio="xMidYMid meet" version="1.0"><defs><g/><clipPath id="ade525da3f"><path d="M 118 172 L 175 172 L 175 232 L 118 232 Z M 118 172 " clip-rule="nonzero"/></clipPath><clipPath id="1fd4c94a16"><path d="M 109.125 191.707031 L 160.003906 162.835938 L 187.394531 211.105469 L 136.515625 239.976562 Z M 109.125 191.707031 " clip-rule="nonzero"/></clipPath><clipPath id="0aec48194a"><path d="M 109.125 191.707031 L 160.003906 162.835938 L 187.394531 211.105469 L 136.515625 239.976562 Z M 109.125 191.707031 " clip-rule="nonzero"/></clipPath><clipPath id="a840323be4"><path d="M 109.125 191.707031 L 160.003906 162.835938 L 187.394531 211.105469 L 136.515625 239.976562 Z M 109.125 191.707031 " clip-rule="nonzero"/></clipPath><clipPath id="e6d624d00b"><path d="M 190 180 L 251 180 L 251 233 L 190 233 Z M 190 180 " clip-rule="nonzero"/></clipPath><clipPath id="0f2d19baae"><path d="M 201.988281 174.925781 L 262.074219 193.867188 L 247.640625 239.644531 L 187.558594 220.707031 Z M 201.988281 174.925781 " clip-rule="nonzero"/></clipPath><clipPath id="62f1e881d6"><path d="M 201.988281 174.925781 L 262.074219 193.867188 L 247.640625 239.644531 L 187.558594 220.707031 Z M 201.988281 174.925781 " clip-rule="nonzero"/></clipPath><clipPath id="21dc1660a0"><path d="M 201.988281 174.925781 L 262.074219 193.867188 L 247.640625 239.644531 L 187.558594 220.707031 Z M 201.988281 174.925781 " clip-rule="nonzero"/></clipPath></defs><g clip-path="url(#ade525da3f)"><g clip-path="url(#1fd4c94a16)"><g clip-path="url(#0aec48194a)"><g clip-path="url(#a840323be4)"><path fill="#000000" d="M 130.40625 207.015625 C 130.445312 206.75 130.476562 206.484375 130.5 206.222656 C 128.75 206.066406 127.015625 206.351562 125.265625 206.285156 C 123.488281 206.222656 121.714844 206.179688 119.9375 206.226562 C 119.902344 206.230469 119.875 206.230469 119.84375 206.230469 C 119.835938 206.226562 119.824219 206.226562 119.820312 206.226562 C 119.773438 206.457031 119.726562 206.6875 119.671875 206.914062 C 123.246094 207.246094 126.828125 207.09375 130.40625 207.015625 Z M 130.984375 201.367188 C 128.644531 197.230469 125.714844 193.28125 121.355469 191.753906 C 121.238281 194.582031 120.480469 197.308594 120.332031 200.128906 C 120.238281 201.792969 120.214844 203.472656 120 205.121094 C 121.960938 205.085938 123.921875 205.234375 125.882812 205.195312 C 127.453125 205.164062 129 204.964844 130.570312 205.113281 C 130.621094 203.855469 130.640625 202.601562 130.984375 201.367188 Z M 138.367188 176.539062 C 137.277344 177.445312 136.332031 178.546875 135.058594 179.199219 C 134.003906 179.746094 132.894531 180.125 131.777344 180.511719 C 134.371094 181.519531 137.503906 179.164062 138.367188 176.539062 Z M 140.160156 175.6875 C 139.992188 175.726562 139.824219 175.777344 139.65625 175.820312 C 139.132812 179.886719 134.15625 183.414062 130.472656 181.042969 C 130.277344 181.25 130.09375 181.460938 129.917969 181.671875 C 131.898438 183.414062 134.859375 183.453125 137.101562 182.074219 C 139.441406 180.632812 140.335938 178.320312 140.160156 175.6875 Z M 152.867188 173.15625 C 152.855469 173.203125 150.199219 173.390625 149.941406 173.429688 C 148.195312 173.675781 146.460938 174.050781 144.753906 174.484375 C 144.078125 174.660156 143.40625 174.960938 142.726562 175.078125 C 142.570312 175.105469 141.261719 175.242188 141.261719 175.453125 C 141.300781 178.65625 140.355469 181.832031 137.230469 183.261719 C 136.652344 183.523438 136.042969 183.742188 135.429688 183.886719 C 133.238281 184.410156 130.867188 184.0625 129.203125 182.445312 C 128.957031 182.648438 128.773438 182.941406 128.527344 183.15625 C 128.484375 183.195312 128.4375 183.222656 128.390625 183.242188 C 126.007812 185.578125 123.675781 187.957031 121.839844 190.761719 C 125.550781 192.136719 128.394531 195.386719 130.550781 198.605469 C 133.734375 203.363281 135.960938 208.746094 138.785156 213.722656 C 140.277344 216.355469 142.019531 218.835938 143.082031 221.683594 C 144.105469 224.449219 145.84375 226.925781 146.746094 229.734375 C 147.070312 230.761719 150.046875 230.023438 150.660156 229.847656 C 151.933594 229.476562 153.160156 228.960938 154.332031 228.324219 C 158.992188 225.800781 163.640625 223.210938 168.171875 220.480469 C 169.394531 219.746094 170.632812 218.964844 171.636719 217.949219 C 172.117188 217.460938 174.253906 215.390625 173.550781 214.523438 C 171.570312 212.050781 170.050781 209.261719 168.121094 206.742188 C 166.410156 204.519531 165.28125 201.910156 163.890625 199.476562 C 161.066406 194.550781 157.492188 189.8125 155.136719 184.652344 C 153.519531 181.109375 152.140625 177.070312 152.867188 173.15625 Z M 165.722656 178.96875 C 164.117188 178.226562 162.601562 177.292969 160.96875 176.558594 C 158.628906 175.5 156.183594 174.703125 153.917969 173.488281 C 153.058594 178.1875 155.1875 182.882812 157.679688 187.113281 C 158.359375 187.6875 159.382812 188.121094 160.382812 188.457031 C 160.386719 188.457031 160.386719 188.453125 160.390625 188.449219 C 162.667969 185.65625 164.578125 182.402344 165.722656 178.96875 Z M 167.613281 179.707031 C 167.316406 179.613281 167.023438 179.511719 166.738281 179.402344 C 165.582031 182.8125 163.730469 186 161.5 188.816406 C 161.734375 188.886719 161.960938 188.953125 162.167969 189.015625 C 164.078125 185.96875 166.054688 182.964844 167.613281 179.707031 Z M 168.53125 178.832031 C 168.902344 178.925781 169.011719 179.328125 168.863281 179.644531 C 167.214844 183.269531 164.996094 186.574219 162.890625 189.949219 C 162.765625 190.152344 162.511719 190.277344 162.265625 190.203125 C 161.328125 189.894531 160.027344 189.535156 158.832031 189.015625 C 159.503906 190.105469 160.175781 191.148438 160.796875 192.148438 C 163.183594 196.027344 165.355469 199.996094 167.574219 203.964844 C 168.511719 205.660156 169.902344 207.007812 170.933594 208.636719 C 172.152344 210.570312 173.277344 212.542969 174.796875 214.261719 C 174.917969 214.40625 175.003906 214.613281 174.9375 214.804688 C 174.003906 217.472656 172.007812 219.390625 169.660156 220.867188 C 165.863281 223.253906 161.84375 225.242188 158 227.539062 C 154.46875 229.648438 150.578125 231.972656 146.277344 231.066406 C 146.078125 231.027344 145.941406 230.847656 145.882812 230.667969 C 145.117188 228.257812 143.726562 226.199219 142.765625 223.886719 C 142.015625 222.070312 141.40625 220.261719 140.371094 218.578125 C 138.121094 214.90625 136.0625 211.128906 134.082031 207.3125 C 133.363281 205.917969 132.617188 204.40625 131.808594 202.878906 C 131.59375 204.476562 131.722656 206.113281 131.414062 207.710938 C 131.363281 207.957031 131.113281 208.109375 130.878906 208.113281 C 126.902344 208.191406 122.925781 208.402344 118.96875 207.960938 C 118.625 207.921875 118.332031 207.625 118.441406 207.253906 C 119.246094 204.542969 118.960938 201.742188 119.332031 198.972656 C 119.683594 196.359375 120.257812 193.785156 120.273438 191.132812 C 120.273438 190.882812 120.417969 190.71875 120.601562 190.652344 C 120.605469 190.632812 120.613281 190.617188 120.621094 190.601562 C 122.773438 187.179688 125.652344 184.367188 128.523438 181.566406 C 128.527344 181.566406 128.53125 181.566406 128.535156 181.570312 C 129.015625 181.035156 129.453125 180.46875 129.96875 179.972656 C 130.09375 179.851562 130.234375 179.808594 130.371094 179.816406 C 130.378906 179.816406 130.394531 179.820312 130.40625 179.816406 C 131.972656 179.257812 133.71875 178.867188 135.089844 177.875 C 136.308594 177 137.292969 175.867188 138.535156 175.019531 C 138.636719 174.945312 138.742188 174.921875 138.835938 174.925781 C 138.886719 174.894531 138.945312 174.863281 139.007812 174.847656 C 143.632812 173.503906 148.5 172.140625 153.351562 172.027344 C 153.453125 172.023438 153.53125 172.046875 153.601562 172.078125 C 153.652344 172.089844 153.703125 172.109375 153.75 172.136719 C 156.222656 173.59375 158.976562 174.3125 161.519531 175.601562 C 163.816406 176.769531 166.011719 178.1875 168.53125 178.832031 " fill-opacity="1" fill-rule="nonzero"/></g></g></g></g><g clip-path="url(#e6d624d00b)"><g clip-path="url(#0f2d19baae)"><g clip-path="url(#62f1e881d6)"><g clip-path="url(#21dc1660a0)"><path fill="#000000" d="M 244.246094 190.183594 C 244.304688 190.003906 244.355469 189.839844 244.398438 189.699219 C 235.632812 187.976562 227.113281 184.492188 218.628906 181.710938 C 218.609375 181.773438 218.585938 181.839844 218.566406 181.90625 C 222.367188 184.101562 226.761719 184.949219 230.84375 186.480469 C 233.136719 187.339844 235.417969 188.277344 237.761719 188.988281 C 239.914062 189.648438 242.039062 189.886719 244.246094 190.183594 Z M 243.164062 194.402344 C 243.214844 194.0625 243.273438 193.722656 243.351562 193.382812 C 243.3125 193.273438 243.308594 193.152344 243.355469 193.011719 C 243.527344 192.457031 243.816406 191.542969 244.066406 190.75 C 241.851562 190.464844 239.75 190.253906 237.582031 189.554688 C 235.246094 188.800781 232.96875 187.894531 230.667969 187.042969 C 226.574219 185.539062 222.195312 184.652344 218.382812 182.484375 C 218.128906 183.296875 217.871094 184.121094 217.644531 184.832031 C 217.683594 184.941406 217.683594 185.070312 217.628906 185.214844 C 217.582031 185.332031 217.523438 185.4375 217.476562 185.546875 C 225.371094 190.015625 234.6875 191.78125 243.164062 194.402344 Z M 244.417969 230.015625 C 245.96875 230.273438 247.472656 230.441406 249.039062 230.257812 C 247.289062 223.132812 247.394531 215.683594 245.714844 208.546875 C 244.738281 204.375 242.875 199.976562 243.0625 195.613281 C 234.542969 192.953125 225.015625 191.136719 216.949219 186.605469 C 214.558594 190.878906 209.882812 193.519531 206.414062 196.84375 C 201.324219 201.742188 197.121094 207.554688 191.796875 212.214844 C 192.972656 213.261719 194.300781 213.988281 195.71875 214.667969 C 195.796875 214.5625 195.878906 214.464844 195.957031 214.363281 C 196.144531 214.121094 196.328125 213.878906 196.515625 213.644531 C 196.882812 213.167969 197.242188 212.703125 197.59375 212.25 C 198.304688 211.351562 198.976562 210.449219 199.621094 209.613281 C 200.90625 207.933594 202.070312 206.417969 203.121094 205.046875 C 205.210938 202.308594 206.855469 200.183594 208.125 198.570312 C 210.644531 195.347656 211.652344 194.15625 211.773438 194.226562 C 211.878906 194.285156 211.066406 195.625 208.664062 198.972656 C 207.464844 200.636719 205.878906 202.804688 203.820312 205.574219 C 202.789062 206.953125 201.636719 208.484375 200.363281 210.179688 C 199.222656 211.710938 197.917969 213.390625 196.507812 215.203125 C 196.511719 215.222656 196.523438 215.242188 196.527344 215.265625 C 197.296875 218.5 200.234375 219.570312 202.972656 220.816406 C 203.015625 220.835938 203.050781 220.859375 203.082031 220.878906 C 203.09375 220.878906 203.105469 220.882812 203.113281 220.882812 C 205.925781 215.578125 208.207031 211.0625 210.128906 207.390625 C 212.101562 203.570312 213.636719 200.589844 214.835938 198.324219 C 216.035156 196.058594 216.820312 194.496094 217.378906 193.507812 C 217.917969 192.527344 218.191406 192.113281 218.257812 192.132812 C 218.320312 192.15625 218.160156 192.617188 217.71875 193.65625 C 217.273438 194.683594 216.558594 196.324219 215.4375 198.628906 C 214.320312 200.929688 212.839844 203.941406 210.914062 207.792969 C 209.015625 211.519531 206.761719 216.039062 203.878906 221.472656 C 205.460938 222.984375 206.839844 224.4375 209.242188 224.269531 C 209.269531 224.25 209.300781 224.226562 209.328125 224.214844 C 209.472656 223.84375 209.660156 223.328125 209.832031 222.921875 C 210.039062 222.421875 210.222656 221.984375 210.421875 221.507812 C 210.820312 220.566406 211.195312 219.660156 211.5625 218.796875 C 212.296875 217.078125 212.960938 215.527344 213.558594 214.128906 C 214.769531 211.34375 215.71875 209.167969 216.4375 207.507812 C 217.167969 205.855469 217.683594 204.710938 218.019531 204 C 218.335938 203.277344 218.511719 202.96875 218.578125 202.988281 C 218.640625 203.007812 218.585938 203.34375 218.367188 204.121094 C 218.132812 204.894531 217.714844 206.070312 217.0625 207.761719 C 216.410156 209.449219 215.53125 211.652344 214.371094 214.460938 C 213.789062 215.867188 213.140625 217.421875 212.429688 219.148438 C 212.070312 220.007812 211.699219 220.902344 211.304688 221.851562 C 211.109375 222.324219 210.917969 222.785156 210.714844 223.277344 C 210.550781 223.675781 210.382812 224.132812 210.242188 224.488281 C 211.785156 226.820312 214.671875 228.027344 217.429688 227.730469 C 217.503906 227.726562 217.566406 227.730469 217.628906 227.742188 C 219.734375 221.40625 221.414062 216.0625 222.835938 211.703125 C 224.28125 207.234375 225.417969 203.753906 226.300781 201.101562 C 227.1875 198.449219 227.8125 196.625 228.238281 195.46875 C 228.664062 194.316406 228.882812 193.828125 228.945312 193.847656 C 229.011719 193.867188 228.90625 194.390625 228.597656 195.582031 C 228.277344 196.773438 227.746094 198.625 226.945312 201.304688 C 226.144531 203.980469 225.070312 207.488281 223.675781 211.96875 C 222.300781 216.332031 220.667969 221.621094 218.550781 228.003906 C 221.265625 229.335938 223.804688 230.941406 226.886719 229.734375 C 226.976562 229.363281 227.101562 228.894531 227.195312 228.472656 C 227.3125 227.949219 227.410156 227.488281 227.523438 226.988281 C 227.742188 225.988281 227.957031 225.03125 228.15625 224.117188 C 228.5625 222.292969 228.921875 220.644531 229.253906 219.160156 C 229.914062 216.191406 230.457031 213.882812 230.890625 212.121094 C 231.328125 210.367188 231.660156 209.15625 231.914062 208.394531 C 232.179688 207.628906 232.324219 207.320312 232.390625 207.339844 C 232.453125 207.363281 232.421875 207.71875 232.269531 208.484375 C 232.132812 209.265625 231.902344 210.496094 231.550781 212.269531 C 231.191406 214.039062 230.71875 216.359375 230.117188 219.34375 C 229.800781 220.828125 229.457031 222.476562 229.074219 224.304688 C 228.878906 225.21875 228.671875 226.167969 228.457031 227.171875 C 228.347656 227.671875 228.238281 228.160156 228.121094 228.6875 C 228.027344 229.121094 227.886719 229.648438 227.792969 230.035156 C 227.808594 230.066406 227.820312 230.097656 227.832031 230.128906 C 229.703125 231.644531 231.667969 231.246094 233.832031 230.917969 C 234.582031 224.808594 235.328125 219.8125 235.910156 215.671875 C 236.542969 211.410156 237.054688 208.097656 237.460938 205.570312 C 237.863281 203.039062 238.21875 201.289062 238.445312 200.1875 C 238.679688 199.082031 238.8125 198.613281 238.878906 198.632812 C 238.945312 198.652344 238.929688 199.148438 238.808594 200.265625 C 238.699219 201.390625 238.445312 203.125 238.128906 205.667969 C 237.808594 208.210938 237.363281 211.535156 236.785156 215.792969 C 236.253906 219.902344 235.53125 224.914062 234.796875 230.871094 C 234.804688 230.875 234.816406 230.878906 234.824219 230.882812 C 234.863281 230.886719 234.90625 230.886719 234.949219 230.894531 C 237.90625 231.445312 240.925781 232.25 243.414062 230.042969 C 243.429688 230.027344 243.449219 230.019531 243.464844 230.007812 C 243.347656 227.710938 243.246094 225.585938 243.183594 223.675781 C 243.117188 221.558594 243.050781 219.644531 242.996094 217.921875 C 242.894531 214.472656 242.839844 211.789062 242.8125 209.738281 C 242.765625 205.617188 242.867188 204.054688 242.988281 204.066406 C 243.128906 204.078125 243.269531 205.628906 243.484375 209.714844 C 243.601562 211.765625 243.726562 214.449219 243.871094 217.890625 C 243.945312 219.617188 244.03125 221.523438 244.117188 223.640625 C 244.171875 224.695312 244.203125 225.816406 244.265625 226.964844 C 244.296875 227.535156 244.324219 228.121094 244.351562 228.722656 C 244.371094 229.019531 244.382812 229.328125 244.398438 229.632812 C 244.402344 229.761719 244.414062 229.886719 244.417969 230.015625 Z M 250.207031 230.644531 C 250.292969 230.941406 250.175781 231.289062 249.785156 231.355469 C 247.804688 231.675781 245.945312 231.476562 243.984375 231.136719 C 243.976562 231.136719 243.96875 231.132812 243.960938 231.128906 C 241.175781 233.390625 237.90625 232.640625 234.59375 232.023438 C 234.570312 232.019531 234.546875 232.011719 234.523438 232.003906 C 231.675781 232.40625 229.371094 232.890625 226.984375 230.949219 C 223.554688 232.074219 220.8125 230.394531 217.679688 228.890625 C 214.515625 229.222656 211.355469 227.980469 209.460938 225.425781 C 206.398438 225.644531 204.789062 223.929688 202.6875 221.96875 C 202.664062 221.960938 202.636719 221.957031 202.617188 221.945312 C 199.550781 220.550781 196.441406 219.289062 195.457031 215.839844 C 195.449219 215.839844 195.441406 215.835938 195.433594 215.835938 C 193.632812 214.984375 191.992188 214.082031 190.558594 212.683594 C 190.273438 212.40625 190.378906 212.058594 190.617188 211.863281 C 190.628906 211.734375 190.683594 211.605469 190.808594 211.5 C 196.039062 206.976562 200.097656 201.273438 205.070312 196.492188 C 208.828125 192.878906 214.4375 189.898438 216.476562 184.890625 C 216.449219 184.785156 216.449219 184.671875 216.488281 184.542969 C 216.84375 183.414062 217.289062 182.003906 217.675781 180.78125 C 217.785156 180.429688 218.101562 180.332031 218.378906 180.40625 C 218.433594 180.40625 218.488281 180.417969 218.542969 180.433594 C 227.402344 183.3125 236.300781 187.015625 245.46875 188.714844 C 246.007812 188.816406 245.972656 189.414062 245.644531 189.699219 C 245.292969 190.820312 244.835938 192.269531 244.488281 193.371094 L 244.488281 193.375 C 244.511719 193.46875 244.523438 193.570312 244.496094 193.683594 C 243.21875 199.199219 246.386719 205.117188 247.316406 210.503906 C 248.445312 217.039062 248.628906 223.785156 250.257812 230.238281 C 250.296875 230.398438 250.273438 230.535156 250.207031 230.644531 " fill-opacity="1" fill-rule="nonzero"/></g></g></g></g><g fill="#000000" fill-opacity="1"><g transform="translate(135.681998, 261.54845)"><g><path d="M 3.582031 0 C 3.765625 0 3.859375 -0.09375 3.859375 -0.28125 L 3.859375 -4.605469 L 7.011719 -0.171875 C 7.09375 -0.0546875 7.210938 0 7.347656 0 L 10.46875 0 C 10.695312 0 10.777344 -0.15625 10.632812 -0.335938 L 6.8125 -5.609375 L 10.695312 -10.148438 C 10.84375 -10.324219 10.777344 -10.496094 10.539062 -10.496094 L 7.652344 -10.496094 C 7.515625 -10.496094 7.402344 -10.457031 7.304688 -10.339844 L 3.859375 -6.382812 L 3.859375 -10.214844 C 3.859375 -10.402344 3.765625 -10.496094 3.582031 -10.496094 L 1.320312 -10.496094 C 1.132812 -10.496094 1.039062 -10.402344 1.039062 -10.214844 L 1.039062 -0.28125 C 1.039062 -0.09375 1.132812 0 1.320312 0 Z M 3.582031 0 "/></g></g></g><g fill="#000000" fill-opacity="1"><g transform="translate(157.950297, 261.54845)"><g><path d="M 5.679688 0.28125 C 8.253906 0.28125 10.429688 -0.828125 10.429688 -3.539062 L 10.429688 -10.214844 C 10.429688 -10.402344 10.324219 -10.496094 10.148438 -10.496094 L 7.839844 -10.496094 C 7.652344 -10.496094 7.558594 -10.402344 7.558594 -10.214844 L 7.558594 -4.285156 C 7.558594 -2.84375 6.914062 -2.242188 5.679688 -2.242188 C 4.460938 -2.242188 3.804688 -2.84375 3.804688 -4.285156 L 3.804688 -10.214844 C 3.804688 -10.402344 3.710938 -10.496094 3.527344 -10.496094 L 1.214844 -10.496094 C 1.039062 -10.496094 0.9375 -10.402344 0.9375 -10.214844 L 0.9375 -3.539062 C 0.9375 -0.828125 3.175781 0.28125 5.679688 0.28125 Z M 5.679688 0.28125 "/></g></g></g><g fill="#000000" fill-opacity="1"><g transform="translate(180.512377, 261.54845)"><g><path d="M 3.5 0 C 3.683594 0 3.777344 -0.09375 3.777344 -0.28125 L 3.777344 -4.046875 L 6.144531 -1.285156 C 6.273438 -1.132812 6.410156 -1.132812 6.53125 -1.285156 L 8.929688 -4.074219 L 8.929688 -0.28125 C 8.929688 -0.09375 9.027344 0 9.210938 0 L 11.378906 0 C 11.5625 0 11.65625 -0.09375 11.65625 -0.28125 L 11.65625 -10.257812 C 11.65625 -10.777344 11.296875 -10.898438 10.972656 -10.496094 L 6.339844 -4.703125 L 1.734375 -10.496094 C 1.402344 -10.921875 1.050781 -10.777344 1.050781 -10.257812 L 1.050781 -0.28125 C 1.050781 -0.09375 1.148438 0 1.332031 0 Z M 3.5 0 "/></g></g></g><g fill="#000000" fill-opacity="1"><g transform="translate(204.420382, 261.54845)"><g><path d="M 3.582031 0 C 3.765625 0 3.859375 -0.09375 3.859375 -0.28125 L 3.859375 -4.605469 L 7.011719 -0.171875 C 7.09375 -0.0546875 7.210938 0 7.347656 0 L 10.46875 0 C 10.695312 0 10.777344 -0.15625 10.632812 -0.335938 L 6.8125 -5.609375 L 10.695312 -10.148438 C 10.84375 -10.324219 10.777344 -10.496094 10.539062 -10.496094 L 7.652344 -10.496094 C 7.515625 -10.496094 7.402344 -10.457031 7.304688 -10.339844 L 3.859375 -6.382812 L 3.859375 -10.214844 C 3.859375 -10.402344 3.765625 -10.496094 3.582031 -10.496094 L 1.320312 -10.496094 C 1.132812 -10.496094 1.039062 -10.402344 1.039062 -10.214844 L 1.039062 -0.28125 C 1.039062 -0.09375 1.132812 0 1.320312 0 Z M 3.582031 0 "/></g></g></g><g fill="#000000" fill-opacity="1"><g transform="translate(226.688683, 261.54845)"><g><path d="M 6.300781 0.28125 C 9.722656 0.28125 12.007812 -1.871094 12.007812 -5.25 C 12.007812 -8.625 9.722656 -10.777344 6.300781 -10.777344 C 2.882812 -10.777344 0.613281 -8.625 0.613281 -5.25 C 0.613281 -1.871094 2.882812 0.28125 6.300781 0.28125 Z M 6.300781 -2.242188 C 4.566406 -2.242188 3.417969 -3.390625 3.417969 -5.25 C 3.417969 -7.105469 4.566406 -8.253906 6.300781 -8.253906 C 8.050781 -8.253906 9.210938 -7.105469 9.210938 -5.25 C 9.210938 -3.390625 8.050781 -2.242188 6.300781 -2.242188 Z M 6.300781 -2.242188 "/></g></g></g><g fill="#000000" fill-opacity="1"><g transform="translate(162.321349, 274.029634)"><g><path d="M 2.367188 0.0898438 C 3.429688 0.0898438 4.101562 -0.425781 4.101562 -1.246094 C 4.101562 -1.945312 3.625 -2.378906 2.386719 -2.667969 C 1.359375 -2.898438 0.992188 -3.199219 0.992188 -3.6875 C 0.992188 -4.226562 1.457031 -4.585938 2.246094 -4.585938 C 3.066406 -4.585938 3.5625 -4.191406 3.597656 -3.5 L 4.019531 -3.5 C 3.984375 -4.445312 3.324219 -4.992188 2.246094 -4.992188 C 1.203125 -4.992188 0.566406 -4.472656 0.566406 -3.6875 C 0.566406 -2.953125 1.078125 -2.546875 2.28125 -2.269531 C 3.269531 -2.050781 3.667969 -1.75 3.667969 -1.238281 C 3.667969 -0.671875 3.171875 -0.316406 2.367188 -0.316406 C 1.519531 -0.316406 0.953125 -0.734375 0.910156 -1.457031 L 0.488281 -1.457031 C 0.523438 -0.511719 1.246094 0.0898438 2.367188 0.0898438 Z M 2.367188 0.0898438 "/></g></g></g><g fill="#000000" fill-opacity="1"><g transform="translate(169.720538, 274.029634)"><g><path d="M 4.089844 0 L 4.515625 0 L 4.515625 -4.898438 L 4.089844 -4.898438 L 4.089844 -2.703125 L 1.21875 -2.703125 L 1.21875 -4.898438 L 0.792969 -4.898438 L 0.792969 0 L 1.21875 0 L 1.21875 -2.296875 L 4.089844 -2.296875 Z M 4.089844 0 "/></g></g></g><g fill="#000000" fill-opacity="1"><g transform="translate(177.826756, 274.029634)"><g><path d="M 2.976562 0.0898438 C 4.472656 0.0898438 5.503906 -0.953125 5.503906 -2.449219 C 5.503906 -3.949219 4.472656 -4.992188 2.976562 -4.992188 C 1.484375 -4.992188 0.449219 -3.949219 0.449219 -2.449219 C 0.449219 -0.953125 1.484375 0.0898438 2.976562 0.0898438 Z M 0.882812 -2.449219 C 0.882812 -3.710938 1.734375 -4.5625 2.976562 -4.5625 C 4.222656 -4.5625 5.074219 -3.710938 5.074219 -2.449219 C 5.074219 -1.195312 4.222656 -0.335938 2.976562 -0.335938 C 1.734375 -0.335938 0.882812 -1.195312 0.882812 -2.449219 Z M 0.882812 -2.449219 "/></g></g></g><g fill="#000000" fill-opacity="1"><g transform="translate(186.57699, 274.029634)"><g><path d="M 0.792969 0 L 1.21875 0 L 1.21875 -1.679688 L 2.34375 -1.679688 C 3.480469 -1.679688 4.152344 -2.273438 4.152344 -3.289062 C 4.152344 -4.304688 3.480469 -4.898438 2.34375 -4.898438 L 0.792969 -4.898438 Z M 1.21875 -2.070312 L 1.21875 -4.492188 L 2.339844 -4.492188 C 3.253906 -4.492188 3.722656 -4.082031 3.722656 -3.28125 C 3.722656 -2.484375 3.253906 -2.070312 2.339844 -2.070312 Z M 1.21875 -2.070312 "/></g></g></g><g fill="#000000" fill-opacity="1"><g transform="translate(193.857179, 274.029634)"><g><path d="M 0.792969 0 L 1.21875 0 L 1.21875 -4.898438 L 0.792969 -4.898438 Z M 0.792969 0 "/></g></g></g><g fill="#000000" fill-opacity="1"><g transform="translate(198.666302, 274.029634)"><g><path d="M 0.792969 0 L 1.210938 0 L 1.210938 -4.171875 L 4.191406 0 L 4.59375 0 L 4.59375 -4.898438 L 4.171875 -4.898438 L 4.171875 -0.734375 L 1.191406 -4.898438 L 0.792969 -4.898438 Z M 0.792969 0 "/></g></g></g><g fill="#000000" fill-opacity="1"><g transform="translate(206.849516, 274.029634)"><g><path d="M 2.925781 0.0898438 C 4.417969 0.0898438 5.410156 -1.023438 5.398438 -2.574219 L 2.773438 -2.574219 L 2.773438 -2.171875 L 4.941406 -2.171875 C 4.851562 -1.097656 4.074219 -0.335938 2.933594 -0.335938 C 1.722656 -0.335938 0.882812 -1.195312 0.882812 -2.449219 C 0.882812 -3.703125 1.714844 -4.5625 2.933594 -4.5625 C 3.808594 -4.5625 4.480469 -4.117188 4.789062 -3.386719 L 5.25 -3.386719 C 4.933594 -4.339844 4.046875 -4.992188 2.910156 -4.992188 C 1.476562 -4.992188 0.449219 -3.933594 0.449219 -2.449219 C 0.449219 -0.964844 1.476562 0.0898438 2.925781 0.0898438 Z M 2.925781 0.0898438 "/></g></g></g></svg>