<svg xmlns="http://www.w3.org/2000/svg" xmlns:xlink="http://www.w3.org/1999/xlink" width="500" zoomAndPan="magnify" viewBox="0 0 375 374.999991" height="500" preserveAspectRatio="xMidYMid meet" version="1.0"><defs><g/><clipPath id="e3aeade82e"><path d="M 22 43 L 162 43 L 162 190 L 22 190 Z M 22 43 " clip-rule="nonzero"/></clipPath><clipPath id="819c78dc07"><path d="M 0 92.363281 L 125.242188 21.296875 L 192.238281 139.363281 L 66.996094 210.429688 Z M 0 92.363281 " clip-rule="nonzero"/></clipPath><clipPath id="4c67cff7da"><path d="M 0 92.363281 L 125.242188 21.296875 L 192.238281 139.363281 L 66.996094 210.429688 Z M 0 92.363281 " clip-rule="nonzero"/></clipPath><clipPath id="85dbe733d3"><path d="M 194 50 L 342 50 L 342 180 L 194 180 Z M 194 50 " clip-rule="nonzero"/></clipPath><clipPath id="fec111c405"><path d="M 223.042969 37.5 L 370.398438 83.949219 L 334.773438 196.964844 L 187.417969 150.519531 Z M 223.042969 37.5 " clip-rule="nonzero"/></clipPath><clipPath id="561f6275be"><path d="M 223.042969 37.5 L 370.398438 83.949219 L 334.773438 196.964844 L 187.417969 150.519531 Z M 223.042969 37.5 " clip-rule="nonzero"/></clipPath></defs><g clip-path="url(#e3aeade82e)"><g clip-path="url(#819c78dc07)"><g clip-path="url(#4c67cff7da)"><path fill="#fffbfa" d="M 52.207031 129.726562 C 52.308594 129.078125 52.378906 128.421875 52.441406 127.777344 C 48.136719 127.410156 43.875 128.117188 39.574219 127.972656 C 35.210938 127.824219 30.851562 127.738281 26.480469 127.855469 C 26.402344 127.871094 26.332031 127.867188 26.253906 127.867188 C 26.230469 127.859375 26.210938 127.859375 26.191406 127.867188 C 26.078125 128.425781 25.960938 128.992188 25.828125 129.546875 C 34.609375 130.339844 43.410156 129.941406 52.207031 129.726562 Z M 53.660156 115.882812 C 47.9375 105.761719 40.761719 96.105469 30.066406 92.398438 C 29.757812 99.328125 27.878906 106.007812 27.488281 112.921875 C 27.25 117 27.179688 121.109375 26.640625 125.152344 C 31.464844 125.050781 36.285156 125.402344 41.101562 125.292969 C 44.957031 125.207031 48.765625 124.707031 52.617188 125.0625 C 52.757812 121.984375 52.808594 118.90625 53.660156 115.882812 Z M 71.972656 55.007812 C 69.292969 57.246094 66.960938 59.941406 63.828125 61.550781 C 61.226562 62.898438 58.496094 63.835938 55.75 64.785156 C 62.125 67.246094 69.835938 61.449219 71.972656 55.007812 Z M 76.386719 52.917969 C 75.972656 53.015625 75.5625 53.136719 75.148438 53.242188 C 73.832031 63.214844 61.574219 71.882812 52.542969 66.101562 C 52.066406 66.605469 51.613281 67.121094 51.171875 67.640625 C 56.03125 71.898438 63.304688 71.976562 68.824219 68.582031 C 74.589844 65.039062 76.800781 59.363281 76.386719 52.917969 Z M 107.628906 46.625 C 107.605469 46.742188 101.074219 47.226562 100.441406 47.320312 C 96.144531 47.9375 91.882812 48.867188 87.683594 49.941406 C 86.019531 50.375 84.371094 51.113281 82.695312 51.40625 C 82.308594 51.472656 79.097656 51.820312 79.09375 52.328125 C 79.171875 60.183594 76.820312 67.964844 69.132812 71.484375 C 67.714844 72.132812 66.214844 72.675781 64.707031 73.035156 C 59.320312 74.328125 53.492188 73.492188 49.414062 69.546875 C 48.804688 70.046875 48.355469 70.757812 47.746094 71.292969 C 47.640625 71.386719 47.523438 71.453125 47.40625 71.5 C 41.539062 77.242188 35.792969 83.078125 31.261719 89.960938 C 40.367188 93.304688 47.339844 101.25 52.617188 109.117188 C 60.40625 120.757812 65.84375 133.925781 72.75 146.101562 C 76.40625 152.539062 80.667969 158.605469 83.261719 165.574219 C 85.761719 172.339844 90.011719 178.390625 92.210938 185.265625 C 93.003906 187.78125 100.324219 185.957031 101.832031 185.519531 C 104.96875 184.605469 107.980469 183.335938 110.871094 181.769531 C 122.332031 175.554688 133.773438 169.175781 144.933594 162.457031 C 147.941406 160.648438 150.988281 158.730469 153.464844 156.230469 C 154.644531 155.03125 159.914062 149.953125 158.191406 147.824219 C 153.339844 141.789062 149.621094 134.960938 144.894531 128.808594 C 140.703125 123.367188 137.945312 116.984375 134.546875 111.035156 C 127.636719 98.984375 118.882812 87.40625 113.132812 74.777344 C 109.179688 66.109375 105.824219 56.222656 107.628906 46.625 Z M 139.1875 60.78125 C 135.246094 58.976562 131.53125 56.703125 127.523438 54.910156 C 121.777344 52.328125 115.769531 50.402344 110.214844 47.4375 C 108.070312 58.953125 113.273438 70.445312 119.367188 80.785156 C 121.03125 82.191406 123.546875 83.242188 126 84.0625 C 126.007812 84.058594 126.011719 84.050781 126.019531 84.046875 C 131.632812 77.1875 136.351562 69.203125 139.1875 60.78125 Z M 143.824219 62.578125 C 143.09375 62.355469 142.382812 62.109375 141.675781 61.839844 C 138.816406 70.195312 134.242188 78.023438 128.742188 84.933594 C 129.324219 85.105469 129.875 85.269531 130.378906 85.417969 C 135.097656 77.945312 139.980469 70.566406 143.824219 62.578125 Z M 146.09375 60.425781 C 147.003906 60.660156 147.265625 61.644531 146.90625 62.421875 C 142.828125 71.3125 137.351562 79.421875 132.15625 87.699219 C 131.847656 88.199219 131.222656 88.511719 130.621094 88.324219 C 128.316406 87.582031 125.117188 86.703125 122.191406 85.445312 C 123.832031 88.105469 125.472656 90.65625 126.996094 93.105469 C 132.832031 102.59375 138.140625 112.296875 143.570312 122.003906 C 145.867188 126.148438 149.273438 129.445312 151.796875 133.425781 C 154.777344 138.152344 157.535156 142.976562 161.253906 147.183594 C 161.554688 147.53125 161.757812 148.039062 161.59375 148.507812 C 159.289062 155.054688 154.367188 159.757812 148.585938 163.390625 C 139.242188 169.265625 129.34375 174.167969 119.882812 179.8125 C 111.191406 185.007812 101.613281 190.722656 91.054688 188.535156 C 90.566406 188.441406 90.230469 188.003906 90.085938 187.566406 C 88.214844 181.667969 84.820312 176.632812 82.464844 170.96875 C 80.640625 166.523438 79.148438 162.097656 76.621094 157.988281 C 71.117188 149.003906 66.082031 139.765625 61.234375 130.421875 C 59.476562 127.015625 57.660156 123.316406 55.683594 119.578125 C 55.144531 123.5 55.445312 127.503906 54.679688 131.417969 C 54.554688 132.027344 53.941406 132.398438 53.359375 132.414062 C 43.589844 132.628906 33.816406 133.171875 24.09375 132.113281 C 23.242188 132.023438 22.53125 131.296875 22.796875 130.390625 C 24.800781 123.738281 24.117188 116.886719 25.042969 110.097656 C 25.921875 103.695312 27.355469 97.378906 27.410156 90.886719 C 27.414062 90.269531 27.769531 89.871094 28.21875 89.699219 C 28.234375 89.660156 28.25 89.617188 28.269531 89.574219 C 33.574219 81.183594 40.667969 74.277344 47.742188 67.394531 C 47.757812 67.398438 47.765625 67.398438 47.777344 67.402344 C 48.960938 66.089844 50.039062 64.699219 51.3125 63.480469 C 51.625 63.183594 51.96875 63.078125 52.300781 63.097656 C 52.320312 63.097656 52.355469 63.097656 52.382812 63.09375 C 56.242188 61.714844 60.535156 60.742188 63.910156 58.3125 C 66.910156 56.160156 69.339844 53.375 72.394531 51.289062 C 72.652344 51.113281 72.90625 51.054688 73.136719 51.054688 C 73.257812 50.976562 73.402344 50.902344 73.554688 50.859375 C 84.933594 47.546875 96.902344 44.167969 108.835938 43.859375 C 109.082031 43.851562 109.265625 43.90625 109.445312 43.984375 C 109.566406 44.011719 109.695312 44.058594 109.808594 44.128906 C 115.871094 47.683594 122.644531 49.425781 128.882812 52.558594 C 134.515625 55.40625 139.902344 58.871094 146.09375 60.425781 " fill-opacity="1" fill-rule="nonzero"/></g></g></g><g clip-path="url(#85dbe733d3)"><g clip-path="url(#fec111c405)"><g clip-path="url(#561f6275be)"><path fill="#fffbfa" d="M 326.667969 74.945312 C 326.808594 74.5 326.933594 74.097656 327.042969 73.753906 C 305.539062 69.539062 284.652344 60.984375 263.851562 54.160156 C 263.800781 54.320312 263.75 54.484375 263.699219 54.644531 C 273.011719 60.042969 283.789062 62.109375 293.800781 65.871094 C 299.425781 67.980469 305.011719 70.28125 310.761719 72.03125 C 316.046875 73.648438 321.253906 74.222656 326.667969 74.945312 Z M 323.996094 85.363281 C 324.113281 84.523438 324.257812 83.679688 324.453125 82.84375 C 324.359375 82.578125 324.355469 82.273438 324.464844 81.929688 C 324.894531 80.5625 325.609375 78.296875 326.226562 76.34375 C 320.792969 75.65625 315.636719 75.144531 310.324219 73.425781 C 304.59375 71.578125 299.007812 69.351562 293.363281 67.261719 C 283.332031 63.566406 272.585938 61.398438 263.25 56.078125 C 262.617188 58.082031 261.976562 60.109375 261.421875 61.871094 C 261.519531 62.140625 261.519531 62.457031 261.378906 62.808594 C 261.265625 63.101562 261.125 63.359375 261.007812 63.636719 C 280.355469 74.621094 303.203125 78.933594 323.996094 85.363281 Z M 326.898438 173.226562 C 330.707031 173.851562 334.398438 174.257812 338.238281 173.800781 C 333.972656 156.230469 334.265625 137.847656 330.1875 120.242188 C 327.808594 109.960938 323.253906 99.113281 323.738281 88.34375 C 302.84375 81.820312 279.472656 77.386719 259.707031 66.242188 C 253.816406 76.804688 242.332031 83.34375 233.8125 91.5625 C 221.296875 103.667969 210.953125 118.03125 197.867188 129.554688 C 200.75 132.132812 204.007812 133.914062 207.484375 135.582031 C 207.675781 135.328125 207.871094 135.085938 208.066406 134.835938 C 208.527344 134.238281 208.980469 133.632812 209.441406 133.058594 C 210.339844 131.878906 211.234375 130.730469 212.09375 129.613281 C 213.839844 127.386719 215.492188 125.160156 217.078125 123.097656 C 220.242188 118.941406 223.109375 115.195312 225.6875 111.8125 C 230.835938 105.050781 234.878906 99.792969 238.003906 95.8125 C 244.199219 87.84375 246.671875 84.90625 246.96875 85.070312 C 247.234375 85.222656 245.226562 88.527344 239.324219 96.800781 C 236.375 100.914062 232.472656 106.269531 227.40625 113.109375 C 224.867188 116.515625 222.03125 120.296875 218.902344 124.492188 C 216.089844 128.269531 212.882812 132.425781 209.414062 136.90625 C 209.429688 136.953125 209.449219 137.003906 209.464844 137.054688 C 211.339844 145.03125 218.539062 147.65625 225.253906 150.722656 C 225.351562 150.765625 225.4375 150.824219 225.519531 150.875 C 225.542969 150.871094 225.570312 150.882812 225.589844 150.886719 C 232.523438 137.789062 238.136719 126.632812 242.875 117.566406 C 247.726562 108.128906 251.519531 100.765625 254.46875 95.171875 C 257.421875 89.578125 259.351562 85.714844 260.722656 83.277344 C 262.054688 80.851562 262.726562 79.828125 262.886719 79.878906 C 263.042969 79.933594 262.652344 81.070312 261.5625 83.636719 C 260.460938 86.179688 258.707031 90.230469 255.941406 95.917969 C 253.191406 101.605469 249.546875 109.039062 244.800781 118.550781 C 240.125 127.757812 234.574219 138.917969 227.46875 152.339844 C 231.34375 156.0625 234.722656 159.640625 240.621094 159.210938 C 240.6875 159.160156 240.757812 159.109375 240.832031 159.074219 C 241.1875 158.15625 241.652344 156.890625 242.074219 155.882812 C 242.582031 154.652344 243.03125 153.570312 243.523438 152.394531 C 244.503906 150.0625 245.4375 147.824219 246.332031 145.695312 C 248.148438 141.457031 249.785156 137.625 251.253906 134.167969 C 254.246094 127.289062 256.578125 121.917969 258.351562 117.824219 C 260.148438 113.738281 261.425781 110.917969 262.25 109.15625 C 263.03125 107.378906 263.464844 106.617188 263.625 106.65625 C 263.78125 106.707031 263.640625 107.539062 263.097656 109.453125 C 262.527344 111.367188 261.492188 114.269531 259.886719 118.449219 C 258.277344 122.617188 256.109375 128.050781 253.246094 134.992188 C 251.816406 138.457031 250.21875 142.292969 248.460938 146.5625 C 247.574219 148.683594 246.664062 150.894531 245.691406 153.230469 C 245.210938 154.398438 244.738281 155.535156 244.230469 156.757812 C 243.832031 157.742188 243.414062 158.871094 243.074219 159.75 C 246.847656 165.492188 253.925781 168.460938 260.691406 167.714844 C 260.871094 167.695312 261.027344 167.714844 261.183594 167.742188 C 266.375 152.097656 270.519531 138.902344 274.03125 128.144531 C 277.597656 117.109375 280.402344 108.515625 282.585938 101.972656 C 284.769531 95.421875 286.316406 90.917969 287.367188 88.0625 C 288.417969 85.214844 288.953125 84.007812 289.109375 84.058594 C 289.269531 84.109375 289.011719 85.402344 288.242188 88.339844 C 287.457031 91.277344 286.144531 95.855469 284.164062 102.46875 C 282.183594 109.078125 279.539062 117.730469 276.089844 128.792969 C 272.691406 139.566406 268.660156 152.621094 263.4375 168.382812 C 270.097656 171.65625 276.320312 175.601562 283.882812 172.613281 C 284.109375 171.699219 284.414062 170.53125 284.652344 169.5 C 284.9375 168.207031 285.183594 167.0625 285.460938 165.832031 C 286.003906 163.359375 286.53125 161.003906 287.027344 158.75 C 288.03125 154.246094 288.925781 150.175781 289.746094 146.511719 C 291.378906 139.183594 292.71875 133.484375 293.796875 129.136719 C 294.875 124.800781 295.691406 121.820312 296.316406 119.9375 C 296.976562 118.046875 297.335938 117.285156 297.496094 117.335938 C 297.648438 117.394531 297.566406 118.265625 297.191406 120.160156 C 296.851562 122.085938 296.285156 125.121094 295.414062 129.496094 C 294.519531 133.867188 293.351562 139.597656 291.855469 146.957031 C 291.078125 150.621094 290.226562 154.691406 289.28125 159.203125 C 288.796875 161.460938 288.285156 163.800781 287.75 166.277344 C 287.480469 167.519531 287.210938 168.71875 286.921875 170.019531 C 286.691406 171.085938 286.34375 172.390625 286.109375 173.347656 C 286.148438 173.425781 286.175781 173.5 286.203125 173.582031 C 290.789062 177.3125 295.609375 176.320312 300.917969 175.492188 C 302.792969 160.421875 304.648438 148.09375 306.097656 137.871094 C 307.664062 127.355469 308.941406 119.175781 309.945312 112.9375 C 310.945312 106.699219 311.828125 102.371094 312.386719 99.65625 C 312.960938 96.929688 313.296875 95.773438 313.453125 95.816406 C 313.617188 95.871094 313.578125 97.089844 313.277344 99.84375 C 313.003906 102.625 312.371094 106.902344 311.582031 113.175781 C 310.792969 119.449219 309.675781 127.65625 308.238281 138.167969 C 306.921875 148.3125 305.121094 160.671875 303.289062 175.378906 C 303.308594 175.386719 303.335938 175.394531 303.351562 175.410156 C 303.449219 175.414062 303.554688 175.417969 303.660156 175.4375 C 310.917969 176.777344 318.324219 178.753906 324.433594 173.292969 C 324.476562 173.257812 324.523438 173.234375 324.5625 173.203125 C 324.289062 167.542969 324.042969 162.296875 323.90625 157.589844 C 323.746094 152.359375 323.59375 147.636719 323.464844 143.390625 C 323.238281 134.882812 323.113281 128.257812 323.054688 123.195312 C 322.964844 113.027344 323.214844 109.171875 323.519531 109.203125 C 323.855469 109.234375 324.199219 113.0625 324.703125 123.140625 C 324.980469 128.191406 325.277344 134.820312 325.617188 143.3125 C 325.789062 147.5625 325.988281 152.273438 326.195312 157.492188 C 326.320312 160.09375 326.390625 162.863281 326.539062 165.691406 C 326.609375 167.097656 326.683594 168.550781 326.746094 170.035156 C 326.785156 170.769531 326.816406 171.523438 326.851562 172.28125 C 326.867188 172.59375 326.890625 172.90625 326.898438 173.226562 Z M 341.101562 174.75 C 341.304688 175.480469 341.023438 176.332031 340.0625 176.496094 C 335.207031 177.304688 330.636719 176.8125 325.828125 175.992188 C 325.808594 175.984375 325.789062 175.980469 325.769531 175.972656 C 318.929688 181.558594 310.910156 179.722656 302.78125 178.222656 C 302.726562 178.214844 302.671875 178.1875 302.613281 178.171875 C 295.625 179.179688 289.964844 180.382812 284.121094 175.609375 C 275.695312 178.394531 268.980469 174.265625 261.300781 170.570312 C 253.53125 171.40625 245.78125 168.355469 241.152344 162.066406 C 233.632812 162.613281 229.691406 158.394531 224.542969 153.5625 C 224.488281 153.542969 224.425781 153.535156 224.375 153.507812 C 216.859375 150.078125 209.234375 146.980469 206.832031 138.484375 C 206.8125 138.476562 206.792969 138.46875 206.773438 138.464844 C 202.363281 136.378906 198.339844 134.160156 194.828125 130.71875 C 194.132812 130.03125 194.386719 129.171875 194.976562 128.6875 C 195.007812 128.371094 195.140625 128.058594 195.453125 127.789062 C 208.300781 116.605469 218.289062 102.515625 230.515625 90.695312 C 239.753906 81.761719 253.527344 74.386719 258.558594 62.019531 C 258.488281 61.761719 258.488281 61.476562 258.585938 61.164062 C 259.464844 58.378906 260.5625 54.894531 261.515625 51.875 C 261.785156 51.011719 262.566406 50.765625 263.242188 50.949219 C 263.375 50.949219 263.507812 50.96875 263.648438 51.011719 C 285.375 58.078125 307.183594 67.167969 329.679688 71.316406 C 330.996094 71.558594 330.910156 73.035156 330.105469 73.746094 C 329.234375 76.507812 328.105469 80.09375 327.25 82.804688 L 327.246094 82.816406 C 327.308594 83.050781 327.328125 83.300781 327.261719 83.578125 C 324.101562 97.195312 331.847656 111.785156 334.105469 125.066406 C 336.847656 141.183594 337.261719 157.828125 341.226562 173.738281 C 341.324219 174.136719 341.261719 174.472656 341.101562 174.75 " fill-opacity="1" fill-rule="nonzero"/></g></g></g><g fill="#fffbfa" fill-opacity="1"><g transform="translate(60.368957, 273.518846)"><g><path d="M 8.785156 0 C 9.238281 0 9.472656 -0.234375 9.472656 -0.6875 L 9.472656 -11.300781 L 17.203125 -0.417969 C 17.402344 -0.132812 17.6875 0 18.023438 0 L 25.683594 0 C 26.238281 0 26.4375 -0.386719 26.085938 -0.820312 L 16.714844 -13.765625 L 26.238281 -24.898438 C 26.605469 -25.332031 26.4375 -25.75 25.851562 -25.75 L 18.777344 -25.75 C 18.441406 -25.75 18.15625 -25.652344 17.921875 -25.367188 L 9.472656 -15.660156 L 9.472656 -25.0625 C 9.472656 -25.515625 9.238281 -25.75 8.785156 -25.75 L 3.234375 -25.75 C 2.78125 -25.75 2.546875 -25.515625 2.546875 -25.0625 L 2.546875 -0.6875 C 2.546875 -0.234375 2.78125 0 3.234375 0 Z M 8.785156 0 "/></g></g></g><g fill="#fffbfa" fill-opacity="1"><g transform="translate(115.002324, 273.518846)"><g><path d="M 13.933594 0.6875 C 20.253906 0.6875 25.585938 -2.027344 25.585938 -8.683594 L 25.585938 -25.0625 C 25.585938 -25.515625 25.332031 -25.75 24.898438 -25.75 L 19.230469 -25.75 C 18.777344 -25.75 18.542969 -25.515625 18.542969 -25.0625 L 18.542969 -10.511719 C 18.542969 -6.972656 16.964844 -5.5 13.933594 -5.5 C 10.949219 -5.5 9.339844 -6.972656 9.339844 -10.511719 L 9.339844 -25.0625 C 9.339844 -25.515625 9.105469 -25.75 8.652344 -25.75 L 2.984375 -25.75 C 2.546875 -25.75 2.296875 -25.515625 2.296875 -25.0625 L 2.296875 -8.683594 C 2.296875 -2.027344 7.796875 0.6875 13.933594 0.6875 Z M 13.933594 0.6875 "/></g></g></g><g fill="#fffbfa" fill-opacity="1"><g transform="translate(170.356456, 273.518846)"><g><path d="M 8.582031 0 C 9.035156 0 9.269531 -0.234375 9.269531 -0.6875 L 9.269531 -9.925781 L 15.070312 -3.152344 C 15.390625 -2.78125 15.726562 -2.78125 16.027344 -3.152344 L 21.914062 -9.992188 L 21.914062 -0.6875 C 21.914062 -0.234375 22.148438 0 22.601562 0 L 27.914062 0 C 28.367188 0 28.601562 -0.234375 28.601562 -0.6875 L 28.601562 -25.164062 C 28.601562 -26.4375 27.714844 -26.742188 26.925781 -25.75 L 15.558594 -11.535156 L 4.257812 -25.75 C 3.4375 -26.792969 2.582031 -26.4375 2.582031 -25.164062 L 2.582031 -0.6875 C 2.582031 -0.234375 2.816406 0 3.269531 0 Z M 8.582031 0 "/></g></g></g><g fill="#fffbfa" fill-opacity="1"><g transform="translate(229.012702, 273.518846)"><g><path d="M 8.785156 0 C 9.238281 0 9.472656 -0.234375 9.472656 -0.6875 L 9.472656 -11.300781 L 17.203125 -0.417969 C 17.402344 -0.132812 17.6875 0 18.023438 0 L 25.683594 0 C 26.238281 0 26.4375 -0.386719 26.085938 -0.820312 L 16.714844 -13.765625 L 26.238281 -24.898438 C 26.605469 -25.332031 26.4375 -25.75 25.851562 -25.75 L 18.777344 -25.75 C 18.441406 -25.75 18.15625 -25.652344 17.921875 -25.367188 L 9.472656 -15.660156 L 9.472656 -25.0625 C 9.472656 -25.515625 9.238281 -25.75 8.785156 -25.75 L 3.234375 -25.75 C 2.78125 -25.75 2.546875 -25.515625 2.546875 -25.0625 L 2.546875 -0.6875 C 2.546875 -0.234375 2.78125 0 3.234375 0 Z M 8.785156 0 "/></g></g></g><g fill="#fffbfa" fill-opacity="1"><g transform="translate(283.646075, 273.518846)"><g><path d="M 15.457031 0.6875 C 23.855469 0.6875 29.457031 -4.59375 29.457031 -12.875 C 29.457031 -21.15625 23.855469 -26.4375 15.457031 -26.4375 C 7.074219 -26.4375 1.507812 -21.15625 1.507812 -12.875 C 1.507812 -4.59375 7.074219 0.6875 15.457031 0.6875 Z M 15.457031 -5.5 C 11.199219 -5.5 8.382812 -8.316406 8.382812 -12.875 C 8.382812 -17.4375 11.199219 -20.253906 15.457031 -20.253906 C 19.75 -20.253906 22.601562 -17.4375 22.601562 -12.875 C 22.601562 -8.316406 19.75 -5.5 15.457031 -5.5 Z M 15.457031 -5.5 "/></g></g></g><g fill="#fffbfa" fill-opacity="1"><g transform="translate(125.726318, 316.395235)"><g><path d="M 5.804688 0.222656 C 8.414062 0.222656 10.0625 -1.046875 10.0625 -3.058594 C 10.0625 -4.773438 8.894531 -5.839844 5.855469 -6.542969 C 3.332031 -7.109375 2.4375 -7.847656 2.4375 -9.050781 C 2.4375 -10.375 3.570312 -11.25 5.511719 -11.25 C 7.523438 -11.25 8.742188 -10.289062 8.828125 -8.585938 L 9.859375 -8.585938 C 9.773438 -10.90625 8.15625 -12.246094 5.511719 -12.246094 C 2.953125 -12.246094 1.390625 -10.972656 1.390625 -9.050781 C 1.390625 -7.246094 2.644531 -6.25 5.597656 -5.566406 C 8.019531 -5.03125 9 -4.292969 9 -3.039062 C 9 -1.648438 7.78125 -0.773438 5.804688 -0.773438 C 3.726562 -0.773438 2.335938 -1.804688 2.234375 -3.570312 L 1.203125 -3.570312 C 1.289062 -1.253906 3.058594 0.222656 5.804688 0.222656 Z M 5.804688 0.222656 "/></g></g></g><g fill="#fffbfa" fill-opacity="1"><g transform="translate(143.879598, 316.395235)"><g><path d="M 10.03125 0 L 11.078125 0 L 11.078125 -12.023438 L 10.03125 -12.023438 L 10.03125 -6.628906 L 2.988281 -6.628906 L 2.988281 -12.023438 L 1.941406 -12.023438 L 1.941406 0 L 2.988281 0 L 2.988281 -5.632812 L 10.03125 -5.632812 Z M 10.03125 0 "/></g></g></g><g fill="#fffbfa" fill-opacity="1"><g transform="translate(163.767509, 316.395235)"><g><path d="M 7.300781 0.222656 C 10.972656 0.222656 13.5 -2.335938 13.5 -6.011719 C 13.5 -9.6875 10.972656 -12.246094 7.300781 -12.246094 C 3.640625 -12.246094 1.097656 -9.6875 1.097656 -6.011719 C 1.097656 -2.335938 3.640625 0.222656 7.300781 0.222656 Z M 2.164062 -6.011719 C 2.164062 -9.101562 4.257812 -11.199219 7.300781 -11.199219 C 10.355469 -11.199219 12.453125 -9.101562 12.453125 -6.011719 C 12.453125 -2.9375 10.355469 -0.824219 7.300781 -0.824219 C 4.257812 -0.824219 2.164062 -2.9375 2.164062 -6.011719 Z M 2.164062 -6.011719 "/></g></g></g><g fill="#fffbfa" fill-opacity="1"><g transform="translate(185.23546, 316.395235)"><g><path d="M 1.941406 0 L 2.988281 0 L 2.988281 -4.121094 L 5.753906 -4.121094 C 8.535156 -4.121094 10.183594 -5.582031 10.183594 -8.070312 C 10.183594 -10.5625 8.535156 -12.023438 5.753906 -12.023438 L 1.941406 -12.023438 Z M 2.988281 -5.082031 L 2.988281 -11.027344 L 5.734375 -11.027344 C 7.984375 -11.027344 9.136719 -10.011719 9.136719 -8.054688 C 9.136719 -6.097656 7.984375 -5.082031 5.734375 -5.082031 Z M 2.988281 -5.082031 "/></g></g></g><g fill="#fffbfa" fill-opacity="1"><g transform="translate(203.096783, 316.395235)"><g><path d="M 1.941406 0 L 2.988281 0 L 2.988281 -12.023438 L 1.941406 -12.023438 Z M 1.941406 0 "/></g></g></g><g fill="#fffbfa" fill-opacity="1"><g transform="translate(214.895554, 316.395235)"><g><path d="M 1.941406 0 L 2.972656 0 L 2.972656 -10.234375 L 10.289062 0 L 11.265625 0 L 11.265625 -12.023438 L 10.234375 -12.023438 L 10.234375 -1.804688 L 2.917969 -12.023438 L 1.941406 -12.023438 Z M 1.941406 0 "/></g></g></g><g fill="#fffbfa" fill-opacity="1"><g transform="translate(234.97237, 316.395235)"><g><path d="M 7.179688 0.222656 C 10.835938 0.222656 13.277344 -2.507812 13.242188 -6.320312 L 6.800781 -6.320312 L 6.800781 -5.324219 L 12.125 -5.324219 C 11.902344 -2.695312 9.996094 -0.824219 7.195312 -0.824219 C 4.226562 -0.824219 2.164062 -2.9375 2.164062 -6.011719 C 2.164062 -9.085938 4.207031 -11.199219 7.195312 -11.199219 C 9.34375 -11.199219 10.992188 -10.097656 11.746094 -8.3125 L 12.878906 -8.3125 C 12.109375 -10.648438 9.925781 -12.246094 7.144531 -12.246094 C 3.625 -12.246094 1.097656 -9.652344 1.097656 -6.011719 C 1.097656 -2.371094 3.625 0.222656 7.179688 0.222656 Z M 7.179688 0.222656 "/></g></g></g></svg>